<?xml version="1.0" encoding="UTF-8"?>
<svg xmlns="http://www.w3.org/2000/svg" xmlns:xlink="http://www.w3.org/1999/xlink" viewBox="0 0 512 512">
  <defs>
    <style>
      .cls-1 {
        fill: #e9c6fa;
      }

      .cls-2 {
        fill: url(#Degradado_sin_nombre_14);
      }

      .cls-3 {
        fill: url(#Degradado_sin_nombre_21);
      }
    </style>
    <linearGradient id="Degradado_sin_nombre_21" data-name="Degradado sin nombre 21" x1="81.15" y1="-46.85" x2="430.85" y2="558.85" gradientUnits="userSpaceOnUse">
      <stop offset="0" stop-color="#ba67e2"/>
      <stop offset=".12" stop-color="#b664dd"/>
      <stop offset=".25" stop-color="#aa5ecf"/>
      <stop offset=".39" stop-color="#9754b8"/>
      <stop offset=".54" stop-color="#7d4598"/>
      <stop offset=".69" stop-color="#5b326e"/>
      <stop offset=".84" stop-color="#311b3c"/>
      <stop offset="1" stop-color="#010001"/>
      <stop offset="1" stop-color="#000"/>
    </linearGradient>
    <linearGradient id="Degradado_sin_nombre_14" data-name="Degradado sin nombre 14" x1="158.89" y1="87.8" x2="357.57" y2="431.92" gradientUnits="userSpaceOnUse">
      <stop offset="0" stop-color="#7400b7"/>
      <stop offset="1" stop-color="#000"/>
    </linearGradient>
  </defs>
  <g id="Capa_2" data-name="Capa 2">
    <rect class="cls-3" width="512" height="512"/>
  </g>
  <g id="Capa_3" data-name="Capa 3">
    <circle class="cls-2" cx="256" cy="256" r="198.64"/>
  </g>
  <g id="Capa_1" data-name="Capa 1">
    <path class="cls-1" d="M273.23,111.15v146.62c0,14.08-3.45,24.61-10.35,31.56-6.9,6.96-17.34,10.44-31.3,10.44h-41.4c-13.97,0-24.4-3.48-31.3-10.44-6.9-6.96-10.35-17.48-10.35-31.56v-41.75h41.65v41.75c0,5.87,2.03,10.86,6.11,14.96,4.07,4.11,8.94,6.16,14.59,6.16s10.51-2.05,14.59-6.16c4.07-4.11,6.11-9.09,6.11-14.96V111.15h41.65Z"/>
    <path class="cls-1" d="M312.08,216.18h39.06v137.19c0,10.67-3.85,19.88-11.53,27.65-7.69,7.77-16.87,11.65-27.53,11.65h-39.3c-10.67,0-19.88-3.84-27.65-11.53-7.77-7.68-11.65-16.94-11.65-27.77v-137.19h39.3v137.19c0,5.34,1.92,9.96,5.77,13.88,3.84,3.92,8.43,5.88,13.77,5.88s10.16-1.96,14-5.88c3.84-3.92,5.76-8.55,5.76-13.88v-137.19Z"/>
  </g>
</svg>